<svg width="748" height="215" viewBox="0 0 748 215" fill="none" xmlns="http://www.w3.org/2000/svg">
<path opacity="0.4" d="M0 212.81V25.0696C0.478176 24.0951 0.858529 23.2788 1.13902 22.6407C4.68922 14.5567 8.50185 8.53982 12.3032 5.75798C16.1608 2.93083 20.1721 1.29938 25.0045 1.25058L25.0232 1.24709H25.2632C46.6206 1.24709 50.7706 23.7806 40.9823 56.7582C27.6362 102.097 19.9247 132.875 19.9247 151.839C19.9247 154.638 20.0784 157.117 20.3708 159.303C21.5967 168.499 25.2744 172.452 30.3054 172.452C32.0899 172.452 33.7806 171.911 35.5426 170.831C38.1818 169.22 40.9898 166.4 44.54 162.283C57.2937 147.443 72.1243 126.008 85.4704 101.825C89.9942 93.6034 93.9055 86.5163 97.3092 80.3491L97.3172 80.3344C105.513 65.4844 110.764 55.9694 114.536 48.7858C120.762 36.9717 125.509 32.3004 135.297 32.3004C136.005 32.3004 136.688 32.3388 137.363 32.3911C153.303 33.7018 159.29 50.3684 159.29 74.8959C159.29 98.803 160.092 114.274 161.277 127.189C162.169 136.804 165.134 142.852 171.957 142.852C174.923 142.852 179.68 142.106 182.957 139.554C211.081 117.662 239.812 78.2016 256.08 55.8591L256.082 55.856C257.055 54.5197 257.983 53.2446 258.864 52.0382C268.967 37.2924 275.865 25.9141 277.305 22.6407C280.859 14.5567 284.668 8.53982 288.469 5.75798C292.331 2.93083 296.342 1.29938 301.174 1.25058L301.193 1.24709H301.433C322.787 1.24709 326.937 23.7806 317.152 56.7582C303.806 102.097 296.094 132.875 296.094 151.839C296.094 154.638 296.248 157.117 296.541 159.303C297.766 168.499 301.44 172.452 306.475 172.452C308.26 172.452 309.947 171.911 311.712 170.834C314.352 169.22 317.159 166.4 320.71 162.283C333.463 147.443 348.294 126.008 361.64 101.825C366.165 93.6022 370.076 86.5143 373.48 80.3465L373.486 80.3357C381.682 65.4849 386.934 55.9696 390.705 48.7858C396.932 36.9717 401.678 32.3004 411.467 32.3004C412.171 32.3004 412.858 32.3388 413.529 32.3911C429.473 33.7018 435.46 50.3684 435.46 74.8959C435.46 98.803 436.262 114.274 437.447 127.189C438.335 136.804 441.3 142.852 448.123 142.852C451.089 142.852 455.85 142.106 459.126 139.554C497.323 109.821 533.923 65.2928 553.218 21.3936C556.769 13.3096 560.581 7.29272 564.383 4.51089C568.24 1.68374 572.252 0.0522901 577.084 0.00348601L577.103 0H577.343C588.776 0 595.278 6.45784 597.35 17.5187C599.536 27.2207 598.068 40.7605 593.322 56.7582C579.976 102.097 572.26 132.875 572.26 151.839C572.26 154.638 572.414 157.117 572.71 159.303C572.801 159.983 572.905 160.635 573.022 161.259C574.616 168.178 577.982 171.205 582.385 171.205C584.169 171.205 585.86 170.664 587.622 169.584C590.261 167.973 593.069 165.153 596.619 161.036C609.373 146.196 624.204 124.761 637.55 100.578C642.079 92.3472 645.994 85.2536 649.4 79.0816L649.403 79.076C657.595 64.2324 662.845 54.7205 666.615 47.5387C672.842 35.7246 677.588 31.0533 687.376 31.0533C688.085 31.0533 688.767 31.0917 689.442 31.144C700.739 32.0729 707.037 40.7147 709.747 54.4014C711.043 60.3092 711.629 67.2173 711.629 74.8959C711.629 98.803 712.428 114.274 713.612 127.189C713.75 128.676 713.938 130.077 714.182 131.384C715.626 137.782 718.612 141.605 724.037 141.605C727.002 141.605 731.76 140.859 735.036 138.307C739.359 134.942 743.696 131.162 748 127.093V167.169C738.573 173.893 725.86 178.497 712.544 178.497C691.491 178.497 675.677 169.535 670.108 141.436C669.002 136.255 668.256 130.4 667.905 123.805C667.577 117.643 667.588 111.043 667.976 104.017C634.855 175.164 606.834 206.111 577.734 212.977C573.37 214.005 568.984 214.5 564.553 214.5C544.5 214.5 526.664 201.68 521.525 175.785C519.647 167.163 519.204 157.043 520.603 145.415C521.192 140.535 522.099 135.396 523.366 129.983C523.465 129.584 523.74 128.405 524.166 126.579L524.633 124.576L524.942 123.262L524.944 123.251C525.35 121.521 525.823 119.506 526.361 117.245C526.823 115.291 527.324 113.191 527.858 110.967C527.084 111.404 526.301 111.769 525.512 112.095C506.051 133.754 485.702 155.151 481.459 158.159C480.118 159.11 478.789 160.069 477.462 161.026L477.456 161.03C465.186 169.879 453.238 178.497 436.378 178.497C411.673 178.497 394.184 166.163 391.991 125.053C391.631 118.29 391.684 111 392.186 103.199C358.9 174.927 330.776 206.085 301.564 212.977C297.2 214.005 292.814 214.5 288.383 214.5C261.871 214.5 239.228 192.085 244.693 146.662C245.282 141.782 246.189 136.644 247.453 131.23C247.584 130.7 248.03 128.793 248.723 125.823C249.188 123.829 249.769 121.357 250.452 118.492C251.025 116.066 251.659 113.413 252.341 110.579C251.355 111.196 250.354 111.677 249.342 112.095C229.882 133.754 209.533 155.151 205.289 158.159C203.946 159.112 202.615 160.072 201.286 161.03C189.016 169.879 177.068 178.497 160.208 178.497C135.503 178.497 118.018 166.16 115.825 125.053C115.465 118.29 115.514 111 116.02 103.199C82.7299 174.927 54.6057 206.085 25.3981 212.977C21.0344 214.005 16.6444 214.5 12.2132 214.5C8.01293 214.5 3.90971 213.937 0 212.81Z" fill="#430E32"/>
</svg>
